<svg xmlns="http://www.w3.org/2000/svg" fill="none" viewBox="0 0 128 26"><path fill="#000" d="M37.522 4.954V.5h-5.46v24.524h5.46v-5.632l11.411 5.632h6.586l-12.723-6.273 12.39-7.391h-6.273l-11.391 7.151V4.954Zm-21.75 14.164 1.13 4.298h5.367L15.932.5h-5.111L4.471 23.416h5.367l1.096-4.298h4.838ZM11.664 15.3l1.691-6.653 1.691 6.653h-3.382ZM63.354.5h-5.46v24.524h5.46V.5Zm12.637 11.233h-7.151v4.618h7.151v4.618h-12.61V.5h12.61v4.618h-7.151v4.464h7.151v2.151Zm22.023 13.291h-5.46V5.118l-7.076 11.53h-.17L78.232 5.118v19.906h-5.46V.5h5.46l8.868 14.654L95.964.5h5.46v24.524h-3.413Z"/></svg>